<svg xmlns="http://www.w3.org/2000/svg" width="32" height="32" viewBox="0 0 32 32">
  <defs>
    <linearGradient id="grad1" x1="0%" y1="0%" x2="100%" y2="100%">
      <stop offset="0%" style="stop-color:#3a3a5e"/>
      <stop offset="100%" style="stop-color:#1a1a2e"/>
    </linearGradient>
    <filter id="shadow1">
      <feDropShadow dx="0" dy="2" stdDeviation="2" flood-opacity="0.4"/>
    </filter>
  </defs>
  <circle cx="16" cy="16" r="14" fill="url(#grad1)" filter="url(#shadow1)"/>
  <g fill="#e5e7eb" filter="url(#shadow1)">
    <path d="M16 8 C10.5 8 6 12.5 6 18 C6 22.4 8.9 26.2 12.8 27.5 C13.3 27.6 13.5 27.3 13.5 27 C13.5 26.7 13.5 25.9 13.5 24.9 C10.8 25.5 10.3 23.6 10.3 23.6 C9.9 22.5 9.2 22.2 9.2 22.2 C8.3 21.6 9.2 21.6 9.2 21.6 C10.2 21.7 10.7 22.6 10.7 22.6 C11.6 24.1 13 23.7 13.5 23.4 C13.6 22.8 13.8 22.3 14.1 22 C11.9 21.7 9.6 20.9 9.6 17.2 C9.6 16.1 10 15.2 10.6 14.5 C10.5 14.2 10.1 13 10.7 11.4 C10.7 11.4 11.5 11.1 13.5 12.5 C14.3 12.3 15.2 12.2 16 12.2 C16.8 12.2 17.7 12.3 18.5 12.5 C20.5 11.1 21.3 11.4 21.3 11.4 C21.9 13 21.5 14.2 21.4 14.5 C22 15.2 22.4 16.1 22.4 17.2 C22.4 20.9 20.1 21.7 17.9 22 C18.3 22.3 18.6 23 18.6 24 C18.6 25.4 18.6 26.6 18.6 27 C18.6 27.3 18.8 27.6 19.3 27.5 C23.2 26.2 26 22.4 26 18 C26 12.5 21.5 8 16 8 Z"/>
    <circle cx="12.5" cy="19" r="1" fill="#1a1a2e"/>
    <circle cx="19.5" cy="19" r="1" fill="#1a1a2e"/>
  </g>
</svg>