<svg xmlns="http://www.w3.org/2000/svg" width="32" height="32" viewBox="0 0 32 32">
  <defs>
    <linearGradient id="grad1" x1="0%" y1="0%" x2="100%" y2="100%">
      <stop offset="0%" style="stop-color:#3a3a5e"/>
      <stop offset="100%" style="stop-color:#1a1a2e"/>
    </linearGradient>
    <linearGradient id="grad2" x1="0%" y1="0%" x2="0%" y2="100%">
      <stop offset="0%" style="stop-color:#ffffff"/>
      <stop offset="100%" style="stop-color:#d1d5db"/>
    </linearGradient>
    <filter id="shadow1">
      <feDropShadow dx="0" dy="2" stdDeviation="2" flood-opacity="0.4"/>
    </filter>
  </defs>
  <circle cx="16" cy="16" r="14" fill="url(#grad1)" filter="url(#shadow1)"/>
  <g fill="url(#grad2)" filter="url(#shadow1)">
    <path d="M16 7 L17.2 7 L17.8 9.2 C18.5 9.5 19.2 9.9 19.8 10.4 L21.8 9.5 L22.8 10.5 L21.9 12.5 C22.4 13.1 22.8 13.8 23.1 14.5 L25.3 15.1 L25.3 16.9 L23.1 17.5 C22.8 18.2 22.4 18.9 21.9 19.5 L22.8 21.5 L21.8 22.5 L19.8 21.6 C19.2 22.1 18.5 22.5 17.8 22.8 L17.2 25 L14.8 25 L14.2 22.8 C13.5 22.5 12.8 22.1 12.2 21.6 L10.2 22.5 L9.2 21.5 L10.1 19.5 C9.6 18.9 9.2 18.2 8.9 17.5 L6.7 16.9 L6.7 15.1 L8.9 14.5 C9.2 13.8 9.6 13.1 10.1 12.5 L9.2 10.5 L10.2 9.5 L12.2 10.4 C12.8 9.9 13.5 9.5 14.2 9.2 L14.8 7 Z"/>
    <circle cx="16" cy="16" r="4" fill="url(#grad1)"/>
  </g>
</svg>