<svg xmlns="http://www.w3.org/2000/svg" width="32" height="32" viewBox="0 0 32 32">
  <defs>
    <linearGradient id="grad1" x1="0%" y1="0%" x2="100%" y2="100%">
      <stop offset="0%" style="stop-color:#3a3a5e"/>
      <stop offset="100%" style="stop-color:#1a1a2e"/>
    </linearGradient>
    <linearGradient id="heartGrad" x1="0%" y1="0%" x2="100%" y2="100%">
      <stop offset="0%" style="stop-color:#f87171"/>
      <stop offset="50%" style="stop-color:#ef4444"/>
      <stop offset="100%" style="stop-color:#dc2626"/>
    </linearGradient>
    <filter id="shadow1">
      <feDropShadow dx="0" dy="2" stdDeviation="2" flood-opacity="0.4"/>
    </filter>
  </defs>
  <circle cx="16" cy="16" r="14" fill="url(#grad1)" filter="url(#shadow1)"/>
  <g filter="url(#shadow1)">
    <path d="M16 23 C16 23 8 17 8 13 C8 10 10 8 13 8 C15 8 16 9 16 10 C16 9 17 8 19 8 C22 8 24 10 24 13 C24 17 16 23 16 23 Z" fill="url(#heartGrad)"/>
    <path d="M11 13 C11 11 13 10 14 11" fill="none" stroke="white" stroke-width="1" opacity="0.5" stroke-linecap="round"/>
    <ellipse cx="12.5" cy="11.5" rx="1.2" ry="0.8" fill="white" opacity="0.6" transform="rotate(-30 12.5 11.5)"/>
  </g>
</svg>